<svg width="21" height="17" viewBox="0 0 21 17" fill="none" xmlns="http://www.w3.org/2000/svg">
<path d="M19.505 5.13208L15.5741 0.812276C14.7963 0.034458 13.5292 0.0334288 12.7441 0.818549C12.4953 1.06735 12.3259 1.36531 12.2381 1.68316C11.4561 1.08411 10.3281 1.1437 9.60773 1.86404C9.35996 2.11284 9.1906 2.41079 9.10067 2.72757C8.31869 2.13063 7.19063 2.18914 6.47137 2.90947C6.22776 3.15308 6.0605 3.44369 5.96955 3.75316L4.11699 1.90059C3.33917 1.12278 2.07208 1.12175 1.28696 1.90687C0.508108 2.68469 0.508108 3.95178 1.28696 4.73062L8.4044 11.8481L4.18285 12.5109C3.04224 12.674 2.18185 13.665 2.18185 14.8182C2.18185 15.6828 2.88542 16.3864 3.75003 16.3864H13.6076C15.1434 16.3864 16.5872 15.7884 17.6734 14.7022L19.3179 13.0577C20.4031 11.9735 21 10.5308 21 8.99711C21 7.56482 20.4689 6.19217 19.505 5.13208ZM18.5787 12.3185L16.9342 13.963C16.0456 14.8516 14.8642 15.3409 13.6076 15.3409H3.74998C3.46144 15.3409 3.22724 15.1067 3.22724 14.8182C3.22724 14.1825 3.70186 13.6357 4.33854 13.5448L9.58152 12.721C9.77597 12.6906 9.93593 12.5537 9.99762 12.3665C10.0582 12.1805 10.0091 11.9745 9.87006 11.8355L2.02606 3.99147C1.65494 3.62035 1.65494 3.01606 2.0313 2.63867C2.21738 2.45362 2.46099 2.36056 2.70459 2.36056C2.9482 2.36056 3.19176 2.45362 3.37788 2.6397L8.60831 7.87012C8.81217 8.07399 9.1436 8.07399 9.34746 7.87012C9.44886 7.76765 9.50012 7.63387 9.50012 7.50003C9.50012 7.3662 9.44891 7.23241 9.34644 7.12994L7.21057 4.99408C6.83945 4.62296 6.83945 4.0197 7.21684 3.64231C7.58693 3.27222 8.19225 3.27222 8.56234 3.64231L10.6992 5.7792C10.9031 5.98306 11.2345 5.98306 11.4384 5.7792C11.5398 5.67673 11.591 5.54294 11.591 5.40911C11.591 5.27527 11.5398 5.14149 11.4374 5.03902L10.3469 3.94859C9.97582 3.57747 9.97582 2.97421 10.3532 2.59682C10.7233 2.22673 11.3286 2.22673 11.6987 2.59682L12.7943 3.69244C12.7964 3.69347 12.7954 3.69347 12.7954 3.69347L12.7964 3.6945C12.7974 3.69553 12.7974 3.69553 12.7974 3.69553C12.7984 3.69656 12.7984 3.69656 12.7984 3.69656H12.7995C12.8005 3.69656 12.8005 3.69758 12.8005 3.69758C13.0054 3.89204 13.3295 3.88787 13.5292 3.68715C13.733 3.48328 13.733 3.15186 13.5292 2.94799L13.4842 2.90306C13.3044 2.72325 13.2051 2.48381 13.2051 2.22977C13.2051 1.97572 13.3034 1.73736 13.4895 1.55128C13.8617 1.18119 14.4639 1.18222 14.8183 1.53349L18.7325 5.83556C19.5196 6.70232 19.9546 7.82514 19.9546 8.99711C19.9546 10.2517 19.4663 11.4309 18.5787 12.3185Z" fill="white"/>
</svg>
